<?xml version="1.0" encoding="UTF-8"?>
<svg data-bbox="236.719 344.999 605.881 390.001" viewBox="0 0 1080 1080" xmlns="http://www.w3.org/2000/svg" data-type="color">
    <g>
        <path d="M433.64 664.09h-143a17.73 17.73 0 1 1 0-35.45H345l23.06-35.46h-77.42a53.19 53.19 0 1 0 0 106.37h143a17.73 17.73 0 0 1 17.72 17.72V735h35.46v-17.73a53.24 53.24 0 0 0-53.18-53.18z" fill="#5771f6" data-color="1"/>
        <path d="M736.18 557.73c13.47 21.27 35.46 36.87 35.46 70.91H522.27l-17.72-17.73-17.73 17.73H345a151 151 0 0 1-12.41-35.46c-18.79-88.28 47.86-177.27 144-177.27H593l2.83-14.18a70.92 70.92 0 0 1 140.05 7.09l1.06 11.35c3.55 2.47 105.66 26.94 105.66 137.56z" fill="#e3e7fa" data-color="2"/>
        <path d="M736.18 557.73c13.47 21.27 35.46 36.87 35.46 70.91H540V415.91h53l2.83-14.18a70.92 70.92 0 0 1 140.05 7.09l1.06 11.35c3.55 2.47 105.66 26.94 105.66 137.56z" fill="#b7c1fa" data-color="3"/>
        <path d="M718.45 469.09h35.46v35.46h-35.46z" fill="#5771f6" data-color="1"/>
        <path d="M433.64 522.27v35.46a53.24 53.24 0 0 1 53.18 53.18v17.73h35.45v-17.73a88.74 88.74 0 0 0-88.63-88.64z" fill="#5771f6" data-color="1"/>
    </g>
</svg>
