<?xml version="1.0" encoding="UTF-8"?>
<svg data-bbox="221.79 220.309 636.362 639.381" viewBox="0 0 1080 1080" xmlns="http://www.w3.org/2000/svg" data-type="color">
    <g>
        <path d="M765.45 313.23a314.79 314.79 0 0 0-224.12-92.92c-174.63 0-316.76 142.13-316.83 316.81a316.22 316.22 0 0 0 42.29 158.39l-45 164.18 168-44.06a316.48 316.48 0 0 0 151.4 38.56h.13c174.62 0 316.76-142.13 316.83-316.82a314.9 314.9 0 0 0-92.7-224.14zM541.33 800.69h-.11a263 263 0 0 1-134-36.71l-9.61-5.71-99.67 26.15 26.61-97.18-6.27-10A262.73 262.73 0 0 1 278 537.14c.05-145.14 118.18-263.32 263.44-263.32a263.39 263.39 0 0 1 263.23 263.53c-.07 145.2-118.19 263.34-263.34 263.34zm144.45-197.23c-7.92-4-46.84-23.11-54.1-25.75s-12.53-4-17.81 4-20.45 25.76-25.07 31-9.23 5.94-17.15 2-33.42-12.35-63.65-39.31c-23.53-21-39.42-46.92-44-54.84s0-11.8 3.47-16.16c8.57-10.64 17.15-21.8 19.79-27.08s1.32-9.91-.66-13.87-17.81-42.92-24.4-58.78c-6.43-15.43-13-13.34-17.82-13.59-4.61-.23-9.89-.27-15.17-.27s-13.85 2-21.11 9.9-27.71 27.08-27.71 66.05 28.37 76.6 32.33 81.89 55.82 85.24 135.23 119.53A454.73 454.73 0 0 0 593 684.86c19 6 36.22 5.17 49.87 3.14 15.21-2.28 46.83-19.16 53.43-37.65s6.6-34.34 4.61-37.64-7.22-5.28-15.13-9.25z" fill="#5771f6" fill-rule="evenodd" data-color="1"/>
    </g>
</svg>
